<?xml version="1.0" encoding="UTF-8" standalone="no"?>
<!-- Created with Inkscape (http://www.inkscape.org/) -->

<svg
   xmlns:dc="http://purl.org/dc/elements/1.1/"
   xmlns:cc="http://creativecommons.org/ns#"
   xmlns:rdf="http://www.w3.org/1999/02/22-rdf-syntax-ns#"
   xmlns:svg="http://www.w3.org/2000/svg"
   xmlns="http://www.w3.org/2000/svg"
   xmlns:sodipodi="http://sodipodi.sourceforge.net/DTD/sodipodi-0.dtd"
   xmlns:inkscape="http://www.inkscape.org/namespaces/inkscape"
   width="240mm"
   height="120mm"
   viewBox="0 0 240 120"
   version="1.1"
   id="svg8"
   inkscape:version="0.92.5 (2060ec1f9f, 2020-04-08)"
   sodipodi:docname="complexity-of-hyp.-space-and-error-trend.svg">
  <defs
     id="defs2">
    <marker
       inkscape:stockid="Arrow1Mend"
       orient="auto"
       refY="0.0"
       refX="0.0"
       id="Arrow1Mend"
       style="overflow:visible;"
       inkscape:isstock="true">
      <path
         id="path4548"
         d="M 0.0,0.0 L 5.0,-5.0 L -12.5,0.0 L 5.0,5.0 L 0.0,0.0 z "
         style="fill-rule:evenodd;stroke:#000000;stroke-width:1pt;stroke-opacity:1;fill:#000000;fill-opacity:1"
         transform="scale(0.4) rotate(180) translate(10,0)" />
    </marker>
    <inkscape:path-effect
       effect="simplify"
       id="path-effect4533"
       is_visible="true"
       steps="1"
       threshold="9.90099e-05"
       smooth_angles="360"
       helper_size="0"
       simplify_individual_paths="false"
       simplify_just_coalesce="false"
       simplifyindividualpaths="false"
       simplifyJustCoalesce="false" />
    <inkscape:path-effect
       effect="simplify"
       id="path-effect4529"
       is_visible="true"
       steps="1"
       threshold="9.90099e-05"
       smooth_angles="360"
       helper_size="0"
       simplify_individual_paths="false"
       simplify_just_coalesce="false"
       simplifyindividualpaths="false"
       simplifyJustCoalesce="false" />
  </defs>
  <sodipodi:namedview
     id="base"
     pagecolor="#ffffff"
     bordercolor="#666666"
     borderopacity="1.0"
     inkscape:pageopacity="0.0"
     inkscape:pageshadow="2"
     inkscape:zoom="1.406257"
     inkscape:cx="500.69274"
     inkscape:cy="181.09331"
     inkscape:document-units="mm"
     inkscape:current-layer="layer1"
     showgrid="false"
     showborder="true"
     width="200mm"
     showguides="true"
     inkscape:guide-bbox="true"
     inkscape:window-width="1920"
     inkscape:window-height="844"
     inkscape:window-x="0"
     inkscape:window-y="25"
     inkscape:window-maximized="0">
    <inkscape:grid
       type="xygrid"
       id="grid815"
       units="mm"
       spacingx="10"
       spacingy="10"
       empspacing="4"
       dotted="false" />
  </sodipodi:namedview>
  <metadata
     id="metadata5">
    <rdf:RDF>
      <cc:Work
         rdf:about="">
        <dc:format>image/svg+xml</dc:format>
        <dc:type
           rdf:resource="http://purl.org/dc/dcmitype/StillImage" />
        <dc:title />
      </cc:Work>
    </rdf:RDF>
  </metadata>
  <g
     inkscape:label="Layer 1"
     inkscape:groupmode="layer"
     id="layer1"
     transform="translate(0,-177)">
    <path
       style="fill:none;stroke:#000000;stroke-width:0.26458332px;stroke-linecap:butt;stroke-linejoin:miter;stroke-opacity:1"
       d="m 41.956828,194.64792 v 67.92114 H 162.93548"
       id="path4521"
       inkscape:connector-curvature="0" />
    <path
       style="fill:none;stroke:#000000;stroke-width:0.26458332px;stroke-linecap:butt;stroke-linejoin:miter;stroke-opacity:1"
       d="m 44.779035,198.03457 c -5.36e-4,0.32145 0.04182,0.64578 -8.14e-4,0.96438 -0.01017,0.076 -0.0076,0.15221 0.02522,0.22537 0.0545,0.12161 0.160375,0.22538 0.173504,0.36088 0.01187,0.1225 -0.04539,0.24556 0.0041,0.36769 0.05066,0.12508 0.180344,0.22574 0.179193,0.36217 -6.42e-4,0.0761 -0.01752,0.15043 0.02016,0.2261 0.06418,0.12889 0.167768,0.24527 0.17529,0.39643 0.0055,0.11058 0.0027,0.22175 -0.01388,0.33103 -0.01077,0.0709 -0.0047,0.14138 0.02866,0.20858 0.115451,0.2327 0.290516,0.44361 0.349339,0.69661 0.03241,0.13939 -0.02503,0.28015 0.01036,0.42154 0.04823,0.19269 0.174249,0.36525 0.183608,0.56568 0.0059,0.1265 -0.03359,0.25417 0.0095,0.3799 0.04319,0.12614 0.139289,0.22723 0.181841,0.35262 0.06438,0.18971 0.16719,0.37174 0.183915,0.57289 0.0099,0.1186 -0.05872,0.2476 0.0017,0.35648 0.04374,0.0788 0.159916,0.0916 0.18521,0.18428 0.03492,0.12797 0.01056,0.26021 -0.0046,0.3889 -0.0077,0.0656 -0.02674,0.14281 0.025,0.19797 0.05586,0.0596 0.150487,0.0877 0.170836,0.17699 0.03026,0.13276 -0.0057,0.26687 -0.0065,0.40101 -6.96e-4,0.11763 0.02012,0.23725 -0.0011,0.35291 -0.01321,0.0718 -0.01258,0.1439 0.02532,0.21197 0.03967,0.0713 0.05022,0.19316 0.131507,0.20745 0.05863,0.0103 0.0244,-0.0974 0.02665,-0.13477 0.0018,-0.0304 -0.01204,-0.13177 -0.0032,-0.11185 0.06108,0.137 0.108816,0.27992 0.152706,0.42323 0.02485,0.0811 0.05589,0.16045 0.04966,0.24951 -0.0064,0.0913 -0.0183,0.18225 -0.02098,0.27387 -0.0022,0.0742 -0.01049,0.16517 0.0469,0.22115 0.0547,0.0533 0.145919,0.0784 0.163189,0.16333 0.0272,0.13383 -0.04385,0.27057 0.01025,0.40345 0.0546,0.1341 0.17759,0.2428 0.179589,0.39636 0.0014,0.10887 -0.0602,0.23134 0.0026,0.32864 0.04682,0.0726 0.157319,0.0872 0.181065,0.17729 0.03318,0.12583 -0.06177,0.26314 0.003,0.38014 0.04368,0.0788 0.161384,0.0912 0.185124,0.18429 0.03494,0.13702 -0.04301,0.27822 0.01305,0.41475 0.05503,0.13402 0.179242,0.24277 0.180383,0.39613 9.12e-4,0.12255 -0.04055,0.24926 0.0129,0.36849 0.05879,0.13113 0.178104,0.2423 0.175326,0.39585 -0.0021,0.1185 -0.04053,0.24224 0.01322,0.35664 0.0574,0.12216 0.160428,0.22513 0.173586,0.36692 0.01632,0.17583 -0.07996,0.36447 -0.0022,0.52766 0.04173,0.0876 0.159687,0.10335 0.192671,0.2015 0.12452,0.37052 0.215869,0.75376 0.371525,1.11227 0.06523,0.15024 0.155371,0.28784 0.213317,0.44215 0.135869,0.36181 0.198117,0.75085 0.367051,1.09907 0.07103,0.14641 0.159736,0.28476 0.207133,0.44224 0.05188,0.17237 0.09333,0.34912 0.178342,0.50991 0.07725,0.1461 0.148312,0.29847 0.254823,0.42601 0.04114,0.0493 0.102262,0.077 0.134656,0.13533 0.07941,0.14309 0.138687,0.29657 0.194177,0.45016 0.129391,0.35815 0.19507,0.74031 0.363894,1.08272 0.07758,0.15734 0.162414,0.31087 0.236139,0.47027 0.09006,0.19473 0.20471,0.37659 0.319713,0.55717 0.04575,0.0718 0.05493,0.21863 0.140126,0.2139 0.01855,-0.001 0.03825,-0.022 0.06826,0.003 0.115872,0.0968 0.2142,0.21338 0.303379,0.33432 0.03669,0.0498 0.09378,0.0778 0.137652,0.12192 0.170114,0.17086 0.234246,0.40958 0.325319,0.62552 0.05697,0.13507 0.142634,0.25651 0.25117,0.35647 0.08814,0.0812 0.201347,0.14543 0.256238,0.25324 0.126809,0.24907 0.207411,0.52667 0.375747,0.74963 0.05991,0.0794 0.150754,0.12728 0.20489,0.21374 0.05929,0.0947 0.15252,0.18189 0.16199,0.29417 0.0052,0.062 0.01144,0.12322 0.04266,0.18058 0.05369,0.0987 0.104364,0.20213 0.180431,0.28481 0.06874,0.0747 0.147345,0.13896 0.219625,0.2105 0.182251,0.18039 0.348862,0.37792 0.54538,0.54261 0.07642,0.064 0.146075,0.13674 0.190978,0.22803 0.0659,0.13399 0.108388,0.28729 0.225472,0.3891 0.140422,0.1221 0.271766,0.25423 0.399298,0.38953 0.06875,0.0729 0.144147,0.13885 0.217656,0.20676 0.128059,0.11831 0.118401,0.31925 0.240951,0.44 0.10629,0.10473 0.322068,0.0593 0.383117,0.19708 0.02621,0.0592 -0.05602,0.13079 -0.0068,0.17921 0.106364,0.10467 0.321651,0.0594 0.383219,0.19699 0.02806,0.0627 -0.04285,0.12973 0.0025,0.19302 0.11565,0.16155 0.28049,0.27605 0.419832,0.41549 0.871834,0.87247 1.757141,1.73168 2.616028,2.61688 0.126572,0.13045 0.233709,0.28954 0.396604,0.37578 0.121458,0.0643 0.259522,0.0971 0.366547,0.18914 0.145495,0.1251 0.26659,0.27446 0.401402,0.41064 0.163976,0.16564 0.328281,0.33077 0.487708,0.50101 0.09883,0.10553 0.206529,0.20899 0.345398,0.26035 0.106475,0.0394 0.211455,0.0877 0.294766,0.16785 0.126204,0.12134 0.229196,0.2662 0.374458,0.3682 0.20452,0.14361 0.436301,0.25081 0.614208,0.43064 0.117083,0.11835 0.230072,0.24053 0.346972,0.35917 0.114863,0.11657 0.236536,0.22676 0.34529,0.34905 0.118569,0.13333 0.229349,0.28836 0.402424,0.35547 0.158424,0.0614 0.361384,0.0314 0.485738,0.15166 0.252042,0.24384 0.434092,0.57877 0.742949,0.74489 0.157106,0.0845 0.31868,0.16164 0.478427,0.24148 0.343874,0.17186 0.72031,0.28995 1.031817,0.51521 0.246125,0.17798 0.40146,0.45065 0.647821,0.62969 0.200388,0.14563 0.41864,0.26396 0.621024,0.40698 0.20989,0.14832 0.425349,0.28981 0.659935,0.39796 0.192009,0.0885 0.401846,0.15448 0.563352,0.29369 0.133183,0.1148 0.220334,0.27552 0.374312,0.36964 0.282016,0.17239 0.606898,0.26297 0.876904,0.45835 0.177693,0.12858 0.353581,0.27097 0.569679,0.33097 0.16156,0.0449 0.328445,0.0802 0.474006,0.16909 0.195949,0.11969 0.368515,0.27392 0.573355,0.38069 0.28919,0.15074 0.5986,0.26588 0.864759,0.45854 0.159908,0.11575 0.322691,0.2279 0.498389,0.31929 0.295689,0.15381 0.601781,0.2867 0.893329,0.44886 0.192309,0.10696 0.391335,0.20195 0.599426,0.27469 0.169908,0.0594 0.34897,0.0915 0.516557,0.15882 0.06333,0.0254 0.111978,-0.0348 0.175087,-0.0186 0.164177,0.0422 0.319556,0.11242 0.47493,0.17893 0.285545,0.12223 0.570707,0.25092 0.831421,0.41987 0.198033,0.12833 0.36948,0.3054 0.600934,0.37635 0.249458,0.0765 0.525348,0.0671 0.75602,0.20249 0.187938,0.11032 0.347197,0.2616 0.538876,0.36761 0.229223,0.12677 0.457547,0.26172 0.705931,0.34515 0.368636,0.12382 0.759561,0.19366 1.106847,0.36863 0.237348,0.11958 0.418288,0.33144 0.672664,0.42188 0.331121,0.11772 0.669365,0.21805 1.01369,0.28668 0.08042,0.016 0.16036,0.0586 0.241906,0.0471 0.06863,-0.01 0.136495,-0.006 0.204332,0.0134 0.203873,0.057 0.408927,0.1181 0.597558,0.21429 0.151791,0.0774 0.302674,0.15652 0.454994,0.23298 0.341294,0.17131 0.689886,0.32876 1.024241,0.51323 0.151233,0.0834 0.307328,0.15852 0.472697,0.21062 0.195232,0.0615 0.397461,0.11031 0.574504,0.2172 0.130562,0.0788 0.274415,0.1303 0.419541,0.17562 0.173607,0.0542 0.351147,0.10282 0.507766,0.20014 0.10192,0.0633 0.216396,0.11827 0.342298,0.10524 0.09748,-0.0101 0.212621,-0.0441 0.296846,0.023 0.05599,0.0446 0.0747,0.1297 0.138409,0.16086 0.142039,0.0695 0.270415,0.19033 0.434073,0.19642 0.122755,0.005 0.247653,-0.0388 0.368602,0.007 0.136746,0.0518 0.256236,0.13744 0.386482,0.20302 0.261775,0.13181 0.530404,0.25076 0.785719,0.39467 0.13556,0.0764 0.277639,0.13972 0.422847,0.19557 0.143691,0.0553 0.277592,0.16468 0.43162,0.16481 0.0468,4e-5 -0.07388,-0.077 -0.0013,-0.0928 0.09678,-0.0211 0.197513,-0.004 0.293492,0.0127 0.109562,0.0194 0.224134,0.0244 0.327635,0.0658 0.128124,0.0513 0.23509,0.14201 0.365752,0.19003 0.224065,0.0823 0.453955,0.14721 0.68002,0.22382 0.220419,0.0747 0.441646,0.14683 0.658837,0.23103 0.154801,0.06 0.318565,0.10721 0.487102,0.0964 0.153482,-0.01 0.309477,-0.0293 0.461521,0.0101 0.19678,0.0509 0.38131,0.13746 0.57389,0.20169 0.373505,0.12457 0.747747,0.25046 1.134056,0.33184 0.209484,0.0441 0.422783,0.003 0.633903,0.001 0.12104,-0.001 0.248259,0.005 0.354487,0.0734 0.09878,0.0636 0.199963,0.1415 0.325335,0.13598 0.114564,-0.005 0.233735,-0.0368 0.344958,0.013 0.131139,0.0588 0.242281,0.17451 0.395845,0.17533 0.102736,5.5e-4 0.213391,-0.0491 0.309255,-0.003 0.246842,0.11836 0.465763,0.31258 0.733612,0.36905 0.203438,0.0429 0.41013,-0.0333 0.614878,0.0101 0.192583,0.0409 0.379674,0.1079 0.554861,0.19576 0.126534,0.0635 0.238933,0.16229 0.386728,0.17836 0.24372,0.0265 0.49383,-0.0693 0.73159,-7.4e-4 0.14188,0.0409 0.24103,0.17176 0.39422,0.18927 0.19413,0.0222 0.39647,-0.0639 0.58354,0.0116 0.12801,0.0516 0.23608,0.13975 0.3656,0.1906 0.17793,0.0699 0.356,0.15623 0.54748,0.17213 0.1186,0.01 0.24754,-0.0586 0.35647,0.002 0.0789,0.0437 0.0912,0.16129 0.1843,0.18513 0.13321,0.0341 0.26814,-0.0358 0.40282,0.008 0.12827,0.0413 0.2297,0.14049 0.35618,0.18309 0.19283,0.065 0.37734,0.16996 0.5816,0.18729 0.12884,0.0109 0.25765,-0.0271 0.38677,0.005 0.19269,0.0482 0.36527,0.17383 0.56568,0.18361 0.1264,0.006 0.25613,-0.0392 0.3797,0.01 0.13491,0.0536 0.24955,0.14583 0.38709,0.19585 0.22725,0.0827 0.45937,0.15053 0.68876,0.2271 0.3768,0.12577 0.75342,0.26953 1.14949,0.31627 0.20539,0.0242 0.4117,4.6e-4 0.61759,-0.003 0.25113,-0.004 0.50806,-0.046 0.75462,0.0154 0.17328,0.0431 0.32515,0.17201 0.50465,0.17453 0.24656,0.003 0.50018,-0.0593 0.73973,-9.2e-4 0.14977,0.0365 0.25604,0.18796 0.41038,0.1955 0.0716,0.003 0.14278,-0.007 0.21471,-0.007 0.12103,-0.001 0.2444,0.0206 0.36313,-0.003 0.0775,-0.0153 0.15529,0.001 0.22484,0.0398 0.12164,0.0671 0.23843,0.16093 0.38462,0.16398 0.11837,0.002 0.236,-0.0118 0.35456,-0.0128 0.16509,-0.002 0.33035,0.004 0.49508,-0.0114 0.11021,-0.0102 0.22323,0.0101 0.318,0.0715 0.0937,0.0607 0.18979,0.12709 0.30591,0.13666 0.19184,0.0158 0.38586,-0.0459 0.57597,0.007 0.19226,0.054 0.36701,0.16684 0.57062,0.18166 0.18164,0.0132 0.36345,2.7e-4 0.54481,-0.0111 0.13276,-0.008 0.26843,-0.0182 0.39831,0.0221 0.19021,0.059 0.36762,0.16474 0.57082,0.17789 0.17876,0.0116 0.35762,-5e-5 0.53605,-0.0118 0.13286,-0.009 0.26768,-0.0154 0.39848,0.0213 0.17191,0.0482 0.32774,0.15898 0.50628,0.17273 0.0786,0.006 0.15738,-8.4e-4 0.23594,-0.006 0.1319,-0.009 0.26694,-0.0163 0.39533,0.0257 0.18087,0.0592 0.35066,0.15593 0.54461,0.17275 0.25659,0.0222 0.51329,-0.008 0.77022,-0.008 0.30498,-6e-4 0.61019,0.0104 0.91496,-9.9e-4 0.1898,-0.007 0.38092,-0.0233 0.56987,0.0124 0.1734,0.0327 0.34187,0.0901 0.51696,0.11684 0.0428,0.007 0.0547,0.0415 0.003,0.0553 -0.0299,0.008 -0.10717,0.0111 -0.0329,0.01 0.45646,-0.009 0.91302,-0.004 1.36953,-0.005 0.2524,-7.6e-4 0.50526,0.0135 0.75721,-0.001 0.13816,-0.008 0.28306,-0.0283 0.41481,0.033 0.10978,0.051 0.20119,0.15775 0.32467,0.16378 0.0716,0.004 0.14278,-0.007 0.21471,-0.007 0.16846,-0.002 0.33714,0.005 0.5052,-0.0114 0.11021,-0.0104 0.22041,0.0144 0.31904,0.0676 0.0939,0.0506 0.17978,0.14204 0.28968,0.14029 0.0722,-0.001 0.14407,-0.008 0.21658,-0.008 0.17132,-5.2e-4 0.34419,0.0219 0.51398,-8.1e-4 0.076,-0.0101 0.15223,-0.008 0.22536,0.0252 0.11823,0.0531 0.21785,0.16468 0.34951,0.17115 0.0716,0.004 0.14277,-0.007 0.21471,-0.007 0.42278,-3.2e-4 0.84849,0.049 1.26835,-4.9e-4 0.0603,-0.007 0.19826,-0.0558 0.18864,0.0424 -0.005,0.0531 -0.0635,0.14918 0.016,0.16275 0.065,0.0111 0.12747,-0.0164 0.1934,-0.0165 0.43564,-2.9e-4 0.87147,0.0119 1.30693,-4.4e-4 0.12192,-0.003 0.25661,-0.0548 0.36776,0.007 0.0788,0.0438 0.0915,0.1602 0.18428,0.1852 0.1347,0.0363 0.27223,-0.004 0.40891,-0.003 0.10786,7.5e-4 0.21502,-0.007 0.32298,-0.0139 0.0775,-0.005 0.17049,-0.0187 0.23287,0.0339 0.0632,0.0533 0.0845,0.15398 0.17539,0.17472 0.13276,0.0303 0.26687,-0.006 0.40101,-0.007 0.3018,-2e-4 0.60455,0.0234 0.9054,-3.1e-4 0.0697,-0.005 0.14952,-0.0291 0.21022,0.0234 0.0644,0.0558 0.0936,0.16695 0.18706,0.17544 0.0677,0.006 0.1343,-0.0103 0.2025,-0.0104 0.24302,-5.3e-4 0.48812,0.0307 0.72907,-8.1e-4 0.0759,-0.01 0.15269,-0.009 0.22517,0.0259 0.12914,0.0618 0.24484,0.17312 0.39715,0.17081 0.10479,-0.002 0.22319,-0.0578 0.31683,0.003 0.0726,0.0469 0.0873,0.15696 0.17727,0.18116 0.13477,0.0363 0.27262,-0.001 0.40926,-0.004 0.18557,-0.004 0.37958,-0.0516 0.5581,0.0108 0.13875,0.0485 0.24306,0.17461 0.39603,0.1881 0.12768,0.0113 0.25479,-0.009 0.38276,-0.0101 0.12778,-0.001 0.25593,0.006 0.38339,-0.003 0.10819,-0.008 0.23078,-0.0457 0.32736,0.0136 0.0794,0.0488 0.0972,0.17918 0.19879,0.18836 0.0677,0.006 0.13432,-0.0102 0.2025,-0.0104 0.1803,-5.2e-4 0.36222,0.023 0.54092,-8.1e-4 0.076,-0.0101 0.15223,-0.008 0.22536,0.0252 0.11824,0.053 0.21785,0.16468 0.34951,0.17111 0.0716,0.004 0.14278,-0.007 0.21472,-0.007 0.12102,-0.001 0.2444,0.0206 0.36312,-0.003 0.0775,-0.0153 0.1543,0.003 0.22484,0.0398 0.1013,0.0525 0.19082,0.15002 0.30767,0.15288 0.24396,0.006 0.49853,-0.0737 0.73197,-0.003 0.0971,0.0295 0.10455,0.16572 0.20441,0.19262 0.1347,0.0363 0.27223,-0.003 0.4089,-0.003 0.30687,-4.1e-4 0.61402,0.0121 0.9206,-6.2e-4 0.11669,-0.005 0.26302,-0.0853 0.35263,6.2e-4 0.0451,0.0432 -0.0236,0.10579 -0.0116,0.15673 0.0217,0.0926 0.13653,0.0316 0.19979,0.0314 0.19995,-5.9e-4 0.4001,0.007 0.59987,-9.5e-4 0.12013,-0.005 0.25562,-0.0548 0.36305,0.0111 0.0794,0.0487 0.0972,0.17919 0.19879,0.18838 0.0677,0.006 0.13431,-0.0101 0.20249,-0.0104 0.18035,-7.3e-4 0.36208,0.0206 0.54107,-0.001 0.0658,-0.008 0.14134,-0.025 0.19826,0.0243 0.0644,0.0558 0.0936,0.16694 0.18706,0.17543 0.0677,0.006 0.1343,-0.0104 0.2025,-0.0104 0.36451,-2e-4 0.73004,0.0268 1.09354,-3.1e-4 0.0695,-0.005 0.15114,-0.031 0.20993,0.0242 0.0595,0.0559 0.0877,0.15047 0.17699,0.17083 0.13276,0.0303 0.26687,-0.007 0.40101,-0.007 1.55611,-2.1e-4 3.11716,0.12346 4.66834,-3.1e-4 0.0697,-0.006 0.14949,-0.0291 0.21022,0.0235 0.0644,0.0558 0.0936,0.16696 0.18706,0.17541 0.0677,0.006 0.13432,-0.009 0.2025,-0.0104 0.081,-0.001 0.16477,0.0119 0.24194,-0.0166 0.0788,-0.0291 0.12328,0.0524 0.0851,0.11744 -0.0466,0.0795 0.0399,0.11731 0.11481,0.099 0.081,-0.0197 0.16472,-0.0117 0.24724,-0.0117 1.01284,2e-4 2.03261,-0.11799 3.0385,3.1e-4 0.0729,0.009 0.14765,0.0198 0.21706,-0.0213 0.0586,-0.0347 0.13507,-0.061 0.16372,-0.12566 0.0134,-0.0302 -0.0466,-0.0463 0.0131,-0.044 0.0529,0.002 0.1058,0.003 0.15871,0.003"
       id="path4527"
       inkscape:connector-curvature="0"
       inkscape:path-effect="#path-effect4529"
       inkscape:original-d="m 44.779035,198.03457 c 0,0.31358 0,0.62716 0,0.94073 0,0.0627 -0.01984,0.12865 0,0.18815 0.04435,0.13304 0.143801,0.24326 0.188148,0.3763 0.03966,0.11899 -0.03967,0.2573 0,0.37629 0.04435,0.13304 0.143799,0.24325 0.188145,0.37629 0.01984,0.0595 -0.01984,0.12865 0,0.18815 0.04435,0.13304 0.154136,0.24025 0.188148,0.3763 0.03042,0.12168 0,0.25086 0,0.37629 0,0.0627 -0.01984,0.12865 0,0.18815 0.0075,0.0226 0.372483,0.73734 0.376296,0.75259 0.03042,0.12168 -0.02461,0.2533 0,0.37629 0.03889,0.19447 0.149251,0.36997 0.188145,0.56444 0.02461,0.123 -0.03042,0.25461 0,0.3763 0.03401,0.13605 0.125434,0.25086 0.188148,0.37629 0.06272,0.18815 0.149254,0.36997 0.188148,0.56444 0.02461,0.123 -0.03967,0.2573 0,0.3763 0.02805,0.0841 0.160099,0.104 0.188148,0.18814 0.03966,0.119 0,0.25087 0,0.3763 0,0.0627 -0.02805,0.13205 0,0.18815 0.03966,0.0793 0.160099,0.104 0.188145,0.18814 0.03967,0.119 0,0.25087 0,0.3763 0,0.12543 0,0.25086 0,0.37629 0,0.0627 -0.02805,0.13206 0,0.18815 0.430538,0.86108 -0.07798,-0.79839 0.376296,0.56444 0.01984,0.0595 0,0.12543 0,0.18815 0,0.12543 -0.03967,0.2573 0,0.37629 0.02805,0.0841 0.160099,0.10401 0.188147,0.18815 0.03966,0.119 -0.03042,0.25461 0,0.3763 0.03401,0.13604 0.154133,0.24024 0.188146,0.37629 0.03042,0.12169 -0.03966,0.2573 0,0.37629 0.02805,0.0841 0.160102,0.10401 0.188147,0.18815 0.03967,0.119 -0.03966,0.2573 0,0.3763 0.02805,0.0841 0.1601,0.104 0.188148,0.18814 0.03966,0.119 -0.03042,0.25461 0,0.3763 0.03401,0.13605 0.154136,0.24024 0.188148,0.37629 0.03042,0.12169 -0.03042,0.25461 0,0.37629 0.03401,0.13606 0.154133,0.24025 0.188145,0.3763 0.03042,0.12169 -0.03042,0.25461 0,0.37629 0.03401,0.13605 0.160647,0.23878 0.188148,0.3763 0.0369,0.18449 -0.04563,0.38191 0,0.56444 0.02151,0.0861 0.148484,0.10882 0.188148,0.18815 0.0024,0.005 0.371644,1.11726 0.376296,1.12888 0.05208,0.13021 0.136064,0.24609 0.188145,0.3763 0.147312,0.36827 0.228984,0.7606 0.376296,1.12888 0.05208,0.1302 0.136064,0.24609 0.188148,0.37629 0.07365,0.18414 0.09945,0.38706 0.188145,0.56444 0.44173,0.88346 0.282831,0.23671 0.564443,0.94074 0.14731,0.36828 0.228981,0.7606 0.376293,1.12888 0.05208,0.13021 0.125431,0.25087 0.188148,0.3763 0.06271,0.12543 0.115996,0.25604 0.188148,0.37629 0.69492,1.1582 0.04364,0.0546 0.752589,0.94074 0.341439,0.21997 0.345024,0.64818 0.564441,0.94073 0.106431,0.14191 0.269862,0.23439 0.376293,0.3763 0.007,0.009 0.366993,0.73863 0.376295,0.75259 0.0492,0.0738 0.138949,0.11435 0.188148,0.18814 0.381238,0.57186 -0.0049,0.18074 0.376293,0.75259 0.0492,0.0738 0.125431,0.12544 0.188148,0.18815 0.188148,0.18815 0.376293,0.3763 0.564441,0.56444 0.06272,0.0627 0.138949,0.11435 0.188148,0.18815 0.07779,0.11668 0.110358,0.25961 0.188148,0.3763 0.0492,0.0738 0.125431,0.12543 0.188145,0.18814 0.125434,0.12543 0.250865,0.25086 0.376296,0.3763 0.06272,0.0627 0.138948,0.11435 0.188148,0.18814 0.07779,0.11669 0.08898,0.27714 0.188145,0.3763 0.09916,0.0992 0.277132,0.089 0.376296,0.18814 0.04435,0.0444 -0.04435,0.14381 0,0.18815 0.09916,0.0992 0.277132,0.089 0.376293,0.18815 0.04435,0.0443 -0.03479,0.13596 0,0.18815 0.0984,0.14759 0.250864,0.25086 0.376295,0.37629 0.06272,0.0627 0.125431,0.12543 0.188148,0.18815 0.313579,0.31358 0.627158,0.62715 0.940737,0.94073 0.43901,0.43901 0.87802,0.87803 1.317029,1.31704 0.06271,0.0627 0.125431,0.12543 0.188148,0.18814 0.125431,0.12543 0.234384,0.26987 0.376293,0.3763 0.112189,0.0841 0.264105,0.104 0.376296,0.18814 0.141909,0.10644 0.250862,0.25087 0.376293,0.3763 0.125431,0.12543 0.250862,0.25086 0.376296,0.37629 0.125431,0.12543 0.234384,0.26986 0.376293,0.3763 0.112188,0.0841 0.264104,0.104 0.376296,0.18814 0.141909,0.10644 0.237778,0.26548 0.376293,0.3763 0.176575,0.14126 0.387868,0.23503 0.564441,0.37629 0.138517,0.11082 0.250864,0.25086 0.376295,0.3763 0.125431,0.12543 0.250862,0.25086 0.376293,0.37629 0.125434,0.12543 0.224187,0.28503 0.376296,0.37629 0.170061,0.10204 0.39438,0.0861 0.564441,0.18815 0.02853,0.0171 0.718614,0.72994 0.752589,0.75259 0.02257,0.0151 1.487569,0.74001 1.505177,0.75259 0.216519,0.15466 0.360035,0.3941 0.564444,0.56444 0.173712,0.14476 0.376293,0.25087 0.564441,0.3763 0.188148,0.12543 0.368109,0.2641 0.564441,0.37629 0.243519,0.13915 0.519221,0.22072 0.752588,0.3763 0.147596,0.0984 0.228701,0.27789 0.376296,0.37629 0.233368,0.15558 0.509069,0.23714 0.752589,0.37629 0.196331,0.11219 0.362188,0.27517 0.564441,0.3763 0.177387,0.0887 0.387053,0.0994 0.564441,0.18814 0.202252,0.10113 0.368112,0.26411 0.564441,0.3763 0.243519,0.13915 0.509071,0.23714 0.752588,0.37629 0.196332,0.11219 0.368112,0.26411 0.564444,0.3763 0.243517,0.13915 0.501724,0.25086 0.752589,0.37629 0.250862,0.12544 0.489974,0.27782 0.752588,0.3763 1.273009,0.47738 0.255696,-0.0786 1.31703,0.37629 0.257797,0.11049 0.509069,0.23714 0.752589,0.3763 0.196331,0.11219 0.3566,0.28722 0.564441,0.37629 0.237678,0.10186 0.514913,0.0863 0.752588,0.18815 0.207844,0.0891 0.368113,0.2641 0.564444,0.37629 0.243517,0.13916 0.494792,0.26581 0.752589,0.3763 0.01288,0.006 1.121487,0.37259 1.128882,0.37629 0.202252,0.10113 0.36219,0.27517 0.564441,0.3763 0.239096,0.11954 1.116089,0.3361 1.317032,0.37629 0.0615,0.0123 0.127304,-0.0152 0.188148,0 0.192402,0.0481 0.380301,0.11449 0.564441,0.18815 0.130206,0.0521 0.250862,0.12543 0.376293,0.18814 0.376295,0.18815 0.752588,0.3763 1.128884,0.56445 0.125431,0.0627 0.246086,0.13606 0.376293,0.18814 0.18414,0.0737 0.380304,0.1145 0.564444,0.18815 0.130206,0.0521 0.246086,0.13607 0.376293,0.18815 0.184139,0.0736 0.380301,0.11449 0.564441,0.18815 0.130206,0.0521 0.240247,0.15413 0.376295,0.18814 0.121688,0.0304 0.2573,-0.0397 0.376293,0 0.08414,0.0281 0.125434,0.12544 0.188148,0.18815 0.125431,0.0627 0.240245,0.15414 0.376296,0.18815 0.121685,0.0304 0.254609,-0.0304 0.376293,0 0.136051,0.034 0.250865,0.12543 0.376296,0.18815 0.250862,0.12543 0.501724,0.25086 0.752589,0.37629 0.125431,0.0627 0.246086,0.13606 0.376293,0.18815 1.299315,0.51972 -0.161714,-0.07 1.128884,0.18814 0.137512,0.0275 0.246086,0.13607 0.376293,0.18815 0.18414,0.0737 0.376296,0.12543 0.564444,0.18815 0.188145,0.0627 0.376293,0.12543 0.564441,0.18814 0.188147,0.0627 0.368816,0.15555 0.56444,0.18815 0.185587,0.0309 0.378855,-0.0309 0.564441,0 0.195628,0.0326 0.376296,0.12543 0.564444,0.18815 0.374888,0.12496 0.939033,0.32904 1.31703,0.37629 0.248925,0.0311 0.505139,-0.0412 0.752588,0 0.13833,0.0231 0.240245,0.15414 0.376293,0.18815 0.121688,0.0304 0.254609,-0.0304 0.376296,0 0.136049,0.034 0.240244,0.15413 0.376293,0.18815 0.121687,0.0304 0.254609,-0.0304 0.376296,0 0.03691,0.009 0.721577,0.37009 0.752589,0.37629 0.184494,0.0369 0.378854,-0.0309 0.564441,0 0.195627,0.0326 0.380301,0.11449 0.564443,0.18815 0.130204,0.0521 0.237964,0.16509 0.37629,0.18815 0.24745,0.0412 0.50514,-0.0413 0.75259,0 0.13833,0.023 0.23878,0.16064 0.3763,0.18814 0.18449,0.0369 0.37994,-0.0369 0.56444,0 0.13751,0.0275 0.24608,0.13607 0.37629,0.18815 0.18414,0.0737 0.36997,0.14925 0.56445,0.18815 0.12299,0.0246 0.25729,-0.0397 0.37629,0 0.0841,0.028 0.104,0.1601 0.18815,0.18814 0.11899,0.0397 0.2546,-0.0304 0.37629,0 0.13605,0.034 0.25086,0.12544 0.37629,0.18815 0.18815,0.0627 0.36997,0.14926 0.56445,0.18815 0.12299,0.0246 0.25329,-0.0246 0.37629,0 0.19447,0.0389 0.36997,0.14925 0.56444,0.18815 0.123,0.0246 0.25461,-0.0304 0.3763,0 0.13605,0.034 0.24608,0.13606 0.37629,0.18815 0.18414,0.0736 0.3763,0.12543 0.56444,0.18814 0.40207,0.13403 0.9036,0.31723 1.31703,0.3763 0.18626,0.0266 0.3763,0 0.56445,0 0.25086,0 0.50424,-0.0355 0.75258,0 0.19634,0.028 0.36997,0.14925 0.56444,0.18814 0.0283,0.006 0.72977,-0.006 0.75259,0 0.13605,0.034 0.24326,0.1438 0.3763,0.18815 0.0595,0.0198 0.12543,0 0.18814,0 0.12544,0 0.25087,0 0.3763,0 0.0627,0 0.12865,-0.0198 0.18815,0 0.13304,0.0443 0.24024,0.15414 0.37629,0.18815 0.12169,0.0304 0.25087,0 0.3763,0 0.12543,0 0.25086,0 0.37629,0 0.12543,0 0.25461,-0.0304 0.3763,0 0.13604,0.034 0.23878,0.16064 0.37629,0.18815 0.18449,0.0369 0.37885,-0.0309 0.56444,0 0.19563,0.0326 0.36882,0.15554 0.56444,0.18814 0.18559,0.0309 0.3763,0 0.56444,0 0.12544,0 0.2533,-0.0246 0.3763,0 0.19447,0.0389 0.36881,0.15554 0.56444,0.18815 0.18559,0.0309 0.37629,0 0.56444,0 0.12543,0 0.2533,-0.0246 0.3763,0 0.19447,0.0389 0.37204,0.14004 0.56444,0.18815 0.0608,0.0152 0.12543,0 0.18815,0 0.12543,0 0.25329,-0.0246 0.37629,0 0.19447,0.0389 0.36811,0.1601 0.56444,0.18814 0.24834,0.0355 0.50173,0 0.75259,0 0.31358,0 0.62716,0 0.94074,0 0.18814,0 0.37885,-0.0309 0.56444,0 1.48586,0.24765 -0.33869,0.18815 1.12888,0.18815 0.3763,0 0.75259,0 1.12889,0 0.12543,0 0.25086,0 0.37629,0 0.12543,0 0.25461,-0.0304 0.37629,0 0.13605,0.034 0.24326,0.1438 0.3763,0.18815 0.0595,0.0198 0.12543,0 0.18814,0 0.12544,0 0.25087,0 0.3763,0 0.12543,0 0.25461,-0.0304 0.37629,0 0.13605,0.034 0.24326,0.1438 0.3763,0.18814 0.0595,0.0198 0.12543,0 0.18814,0 0.18815,0 0.3763,0 0.56445,0 0.0627,0 0.12865,-0.0198 0.18814,0 0.13304,0.0443 0.24326,0.14381 0.3763,0.18815 0.0595,0.0199 0.12543,0 0.18814,0 0.12544,0 0.25087,0 0.3763,0 0.25086,0 0.50173,0 0.75259,0 0.0627,0 0.12543,0 0.18815,0 0.0627,0 0.1438,-0.0443 0.18814,0 0.0443,0.0444 -0.0443,0.1438 0,0.18815 0.0443,0.0444 0.12544,0 0.18815,0 0.0627,0 0.12543,0 0.18815,0 0.37629,0 0.75259,0 1.12888,0 0.12543,0 0.2573,-0.0397 0.3763,0 0.0841,0.0281 0.104,0.1601 0.18814,0.18815 0.119,0.0397 0.25086,0 0.3763,0 0.0627,0 0.12543,0 0.18814,0 0.12543,0 0.2573,-0.0397 0.3763,0 0.0841,0.028 0.104,0.1601 0.18814,0.18814 0.119,0.0397 0.25087,0 0.3763,0 0.12543,0 0.25086,0 0.37629,0 0.18815,0 0.3763,0 0.56445,0 0.0627,0 0.13205,-0.028 0.18814,0 0.0793,0.0397 0.10882,0.14849 0.18815,0.18815 0.0561,0.0281 0.12543,0 0.18815,0 0.25086,0 0.50172,0 0.75259,0 0.0627,0 0.12865,-0.0198 0.18814,0 0.13305,0.0444 0.24025,0.15414 0.3763,0.18815 0.12168,0.0304 0.2573,-0.0397 0.37629,0 0.0841,0.0281 0.10401,0.1601 0.18815,0.18814 0.11899,0.0397 0.25086,0 0.37629,0 0.18815,0 0.37995,-0.0369 0.56445,0 0.13751,0.0275 0.24024,0.15414 0.37629,0.18815 0.12169,0.0304 0.25086,0 0.37629,0 0.12543,0 0.25087,0 0.3763,0 0.12543,0 0.2573,-0.0397 0.37629,0 0.0841,0.0281 0.10882,0.14848 0.18815,0.18815 0.0561,0.028 0.12543,0 0.18815,0 0.18815,0 0.37629,0 0.56444,0 0.0627,0 0.12865,-0.0198 0.18815,0 0.13304,0.0443 0.24325,0.1438 0.37629,0.18815 0.0595,0.0198 0.12543,0 0.18815,0 0.12543,0 0.25086,0 0.37629,0 0.0627,0 0.12865,-0.0198 0.18815,0 0.13304,0.0443 0.24025,0.15413 0.37629,0.18814 0.0454,0.0113 0.71804,-0.0115 0.75259,0 0.0841,0.0281 0.10401,0.16011 0.18815,0.18815 0.11899,0.0397 0.25086,0 0.37629,0 0.31358,0 0.62716,0 0.94074,0 0.12543,0 0.26411,-0.0561 0.37629,0 0.0561,0.0281 -0.0443,0.1438 0,0.18815 0.0444,0.0443 0.12544,0 0.18815,0 0.18815,0 0.3763,0 0.56444,0 0.12544,0 0.2573,-0.0397 0.3763,0 0.0841,0.028 0.10882,0.14848 0.18815,0.18815 0.0561,0.028 0.12543,0 0.18814,0 0.18815,0 0.3763,0 0.56445,0 0.0627,0 0.13205,-0.028 0.18814,0 0.0793,0.0397 0.10882,0.14848 0.18815,0.18814 0.0561,0.0281 0.12543,0 0.18815,0 0.0627,0 0.12543,0 0.18814,0 0.25087,0 0.50173,0 0.75259,0 0.0627,0 0.12543,0 0.18815,0 0.0627,0 0.13205,-0.028 0.18815,0 0.0793,0.0397 0.104,0.1601 0.18814,0.18815 0.119,0.0397 0.25087,0 0.3763,0 0.31358,0 0.62715,0 0.94073,0 0.87803,0 1.75605,0 2.63407,0 0.31357,0 0.62715,0 0.94073,0 0.0627,0 0.12543,0 0.18815,0 0.0627,0 0.13205,-0.0281 0.18814,0 0.0793,0.0397 0.10882,0.14848 0.18815,0.18815 0.0561,0.028 0.12543,0 0.18815,0 0.0627,0 0.12543,0 0.18815,0 0.0627,0 0.1438,-0.0444 0.18814,0 0.0443,0.0443 -0.0443,0.1438 0,0.18815 0.0443,0.0443 0.12543,0 0.18815,0 0.18815,0 0.37629,0 0.56444,0 0.68988,0 1.37975,0 2.06962,0 0.18815,0 0.3763,0 0.56444,0 0.0627,0 0.13206,0.028 0.18815,0 0.46499,-0.2325 -0.0649,-0.18815 0.3763,-0.18815" />
    <path
       style="fill:none;stroke:#000000;stroke-width:0.26458332px;stroke-linecap:butt;stroke-linejoin:miter;stroke-opacity:1"
       d="m 50.423452,198.59901 c 0.148503,0.19875 0.303711,0.39452 0.487422,0.56177 0.04064,0.037 0.071,0.0861 0.0745,0.14266 0.0052,0.0846 0.0083,0.16994 0.0015,0.25438 -0.0042,0.0516 -0.03472,0.10703 -0.0092,0.15668 0.02053,0.0399 0.07108,0.0249 0.104319,0.0134 0.03358,-0.0116 0.08216,-0.0255 0.104846,0.0131 0.03209,0.0546 0.0046,0.11946 -0.01077,0.17497 -0.01535,0.0555 -0.04121,0.11939 -0.01077,0.17497 0.02151,0.0393 0.07118,0.0245 0.104847,0.0132 0.03286,-0.0111 0.08837,-0.0287 0.103645,0.0135 0.021,0.0581 -0.03836,0.11849 -0.0096,0.1746 0.04325,0.0843 0.167611,0.10309 0.191476,0.19601 0.01817,0.0708 -0.0022,0.14409 -0.0079,0.2153 -0.0039,0.0489 -0.0317,0.10939 8.47e-4,0.14843 0.02844,0.0341 0.0782,0.0145 0.111271,6.2e-4 0.0338,-0.0142 0.08047,-0.0133 0.09679,0.0268 0.02493,0.0613 -0.0056,0.12643 -0.02235,0.18565 -0.01467,0.0519 -0.038,0.11819 0.0022,0.1637 0.02935,0.0332 0.07814,0.014 0.111493,1.4e-4 0.03219,-0.0134 0.08566,-0.0158 0.09369,0.0278 0.01063,0.0577 -0.04019,0.11597 -0.0092,0.17182 0.08491,0.15325 0.265057,0.2112 0.36464,0.35434 0.03531,0.0508 -0.001,0.10892 -0.0069,0.16252 -0.0045,0.0408 0.03849,0.0561 0.07556,0.0496 0.03976,-0.007 0.08819,-0.0426 0.12304,-0.0132 0.03412,0.0288 0.01862,0.0786 0.0053,0.11295 -0.01636,0.0422 -0.0017,0.0852 0.02474,0.12114 0.09539,0.12983 0.264407,0.18465 0.346744,0.32677 0.03402,0.0587 -0.03342,0.12417 -0.0058,0.18196 0.0194,0.0405 0.07076,0.0246 0.103649,0.0136 0.03261,-0.011 0.08995,-0.0293 0.103258,0.0138 0.0173,0.056 -0.0482,0.11487 -0.01601,0.16537 0.02406,0.0377 0.07485,0.0192 0.107633,0.007 0.03195,-0.0121 0.0889,-0.023 0.09825,0.0211 0.01157,0.0546 -0.04891,0.11127 -0.01774,0.16023 0.02404,0.0378 0.07484,0.0193 0.107634,0.007 0.03231,-0.0122 0.0873,-0.0227 0.09892,0.0206 0.01588,0.0591 -0.04085,0.11998 -0.0077,0.17691 0.04634,0.0795 0.162768,0.1006 0.188543,0.1916 0.01752,0.0619 -0.03148,0.12525 2.38e-4,0.1865 0.04953,0.0957 0.108626,0.18637 0.154747,0.28395 0.01613,0.0341 0.03001,0.0108 0.0306,-0.0171 0.0012,-0.0551 -0.02213,-0.12187 0.01441,-0.16617 0.03288,-0.0399 0.08893,-5.8e-4 0.114981,0.0263 0.02555,0.0264 0.06963,0.0462 0.07162,0.0866 0.0027,0.0538 -0.04064,0.10934 -0.0107,0.16088 0.04621,0.0796 0.165642,0.0999 0.188366,0.19173 0.01372,0.0555 -0.03879,0.11133 -0.01371,0.16372 0.0194,0.0405 0.07077,0.0247 0.103648,0.0136 0.03286,-0.0111 0.08831,-0.0287 0.103645,0.0135 0.02185,0.0602 -0.03864,0.12259 -0.0058,0.18194 0.08491,0.15325 0.265127,0.21116 0.364643,0.35434 0.03761,0.0541 -0.0089,0.11734 2.07e-4,0.17514 0.0097,0.062 0.06936,0.0975 0.115585,0.13189 0.0429,0.0319 0.09336,0.0747 0.08763,0.13502 -0.0047,0.0498 -0.02962,0.10364 5.18e-4,0.15148 0.05279,0.0838 0.140222,0.13428 0.209584,0.20305 0.124039,0.12298 0.241298,0.25317 0.371362,0.36973 0.06005,0.0538 0.147661,0.0947 0.167817,0.17618 0.01371,0.0554 -0.03881,0.11134 -0.01371,0.16373 0.01941,0.0405 0.07078,0.0246 0.103649,0.0136 0.03286,-0.0111 0.08837,-0.0287 0.103644,0.0135 0.02099,0.0581 -0.03855,0.1186 -0.0096,0.17461 0.06515,0.12594 0.206057,0.18076 0.301286,0.2786 0.03456,0.0355 0.07781,0.0742 0.08264,0.12529 0.0053,0.056 -0.03472,0.11465 -0.0037,0.16784 0.04634,0.0795 0.16248,0.10069 0.188544,0.1916 0.01757,0.0613 -0.03426,0.12581 -4.63e-4,0.18475 0.04946,0.0863 0.137879,0.13652 0.207815,0.20431 0.08599,0.0834 0.171091,0.16717 0.260896,0.24701 0.0398,0.0354 0.09236,0.0728 0.09811,0.12815 0.0054,0.0516 -0.03919,0.10342 -0.01581,0.15223 0.01941,0.0405 0.07079,0.0246 0.103649,0.0135 0.03286,-0.0111 0.08837,-0.0287 0.103647,0.0135 0.02099,0.0581 -0.03897,0.11881 -0.0096,0.1746 0.04726,0.0897 0.152093,0.12485 0.203833,0.21303 0.08905,0.15176 0.127178,0.33631 0.255604,0.46215 0.03496,0.0343 0.07277,0.0745 0.121551,0.0828 0.05368,0.009 0.109137,-0.0425 0.158047,-0.015 0.03943,0.0222 0.02674,0.0764 0.02388,0.11358 -0.0066,0.0849 -0.0507,0.17633 -0.01631,0.2556 0.034,0.0784 0.06474,0.16056 0.116019,0.22897 0.02298,0.0307 0.06891,0.13346 0.07611,0.0963 0.01225,-0.0632 -0.01709,-0.13427 0.01469,-0.19287 0.02532,-0.0467 0.08526,-0.0111 0.11138,0.0147 0.02706,0.0268 0.07363,0.0464 0.07814,0.0867 0.0063,0.0559 -0.0411,0.11299 -0.01021,0.16648 0.05041,0.0873 0.140738,0.13749 0.210754,0.20727 0.185546,0.18491 0.363945,0.37728 0.556174,0.55522 0.06233,0.0577 0.157014,0.10007 0.175766,0.18717 0.01286,0.0597 -0.03472,0.12209 -0.002,0.17922 0.04947,0.0863 0.140026,0.13438 0.207812,0.20432 0.08335,0.086 0.167201,0.17106 0.247004,0.2609 0.03645,0.041 0.07588,0.0946 0.133368,0.0995 0.05826,0.005 0.11928,-0.0348 0.175049,3.2e-4 0.0838,0.0528 0.134275,0.14022 0.203049,0.20958 0.122987,0.12403 0.253159,0.24132 0.369733,0.37136 0.05382,0.06 0.0947,0.1476 0.176179,0.16782 0.05545,0.0138 0.111336,-0.0388 0.163725,-0.0137 0.04053,0.0194 0.02465,0.0708 0.01355,0.10365 -0.0111,0.0329 -0.02869,0.0883 0.01355,0.10364 0.05806,0.021 0.11869,-0.0388 0.174593,-0.01 0.0906,0.0473 0.140643,0.1401 0.210744,0.21075 0.12528,0.12627 0.25783,0.24571 0.376532,0.37815 0.05382,0.0601 0.0947,0.14761 0.176182,0.16783 0.05545,0.0138 0.112313,-0.0407 0.163722,-0.0137 0.04202,0.0221 0.03665,0.0773 0.02659,0.11589 -0.01125,0.0431 -0.01403,0.0776 0.02129,0.11825 0.05991,0.069 0.122801,0.13723 0.204455,0.1821 0.131455,0.0722 0.289672,0.10372 0.395256,0.21643 0.05895,0.0629 0.116806,0.12666 0.177346,0.18827 0.0723,0.0736 0.142974,0.14822 0.211727,0.22562 0.03645,0.041 0.07588,0.0946 0.133366,0.0995 0.05826,0.005 0.119253,-0.0348 0.175049,3.3e-4 0.0838,0.0528 0.13501,0.1395 0.203048,0.20957 0.0815,0.0839 0.163162,0.16726 0.241126,0.25502 0.03645,0.041 0.07592,0.0941 0.133366,0.0995 0.05598,0.005 0.114667,-0.0347 0.167846,-0.004 0.07949,0.0464 0.100805,0.16204 0.191593,0.18855 0.06072,0.0177 0.131384,-0.0436 0.183118,-9e-4 0.07439,0.0614 0.135606,0.13688 0.20229,0.20624 0.05353,0.0557 0.09092,0.1378 0.163671,0.1644 0.09011,0.0329 0.185287,-5.3e-4 0.276791,-0.008 0.06094,-0.005 0.126111,0.009 0.169068,0.0586 0.04365,0.0503 0.06931,0.13066 0.139472,0.1459 0.05969,0.013 0.122576,-0.0356 0.179161,-0.002 0.07751,0.0462 0.09522,0.15972 0.186457,0.18598 0.128562,0.037 0.259624,-0.0327 0.38953,0.003 0.09897,0.0272 0.20116,0.0501 0.291372,0.10103 0.0568,0.032 0.06776,0.10112 0.108338,0.14775 0.08161,0.0938 0.191251,0.1562 0.295128,0.22156 0.07084,0.0446 0.132484,0.11541 0.215124,0.12996 0.04782,0.008 -0.0072,-0.0579 0.01197,-0.0852 0.0273,-0.0388 0.08404,-0.0288 0.123897,-0.0222 0.09131,0.015 0.186643,0.0285 0.267425,0.0732 0.07746,0.0429 0.08944,0.15775 0.178686,0.18348 0.122662,0.0354 0.250516,-0.0467 0.370704,-0.002 0.0891,0.0333 0.09759,0.15897 0.188145,0.18815 0.126784,0.0409 0.259059,0.006 0.388089,-2.2e-4 0.06691,-0.003 0.134948,-0.0151 0.201168,0.009 0.260659,0.0944 0.467436,0.31087 0.739004,0.37092 0.06833,0.0151 0.137479,-0.001 0.206423,-0.004 0.117632,-0.005 0.243468,-0.0468 0.354506,0.004 0.08905,0.0404 0.104364,0.16655 0.201912,0.19388 0.111522,0.0312 0.222582,-0.0512 0.33333,-0.0173 0.09687,0.0296 0.110075,0.16025 0.201912,0.19389 0.105103,0.0385 0.213879,-0.009 0.321139,-0.008 0.05166,3.8e-4 0.09964,0.0249 0.133198,0.0657 0.04142,0.0504 0.0693,0.12963 0.13957,0.14078 0.06172,0.01 0.122293,-0.0242 0.184962,-6.8e-4 0.127279,0.0477 0.226212,0.17257 0.362295,0.18272 0.118803,0.009 0.240679,-0.0299 0.356927,-0.004 0.0528,0.0117 0.08532,0.0622 0.113982,0.10395 0.03454,0.0503 0.08392,0.10307 0.150703,0.0995 0.05468,-0.003 0.108568,-0.0122 0.163704,-0.0124 0.09798,-4.2e-4 0.195761,-0.001 0.293663,-0.0105 0.08489,-0.008 0.180561,-0.0253 0.25568,0.0206 0.07548,0.0461 0.09155,0.16411 0.182142,0.18399 0.06339,0.0139 0.125855,-0.0236 0.190523,5.7e-4 0.129442,0.0484 0.232596,0.15829 0.369035,0.18451 0.06124,0.0118 0.126099,-0.0329 0.184139,9.7e-4 0.08094,0.0472 0.10304,0.16524 0.19696,0.1907 0.06473,0.0175 0.130029,-0.005 0.195629,-0.007 0.11964,-0.004 0.247286,-0.0475 0.360423,0.003 0.08611,0.0387 0.09949,0.16321 0.191168,0.18957 0.06125,0.0176 0.126322,-0.0351 0.184689,-3.6e-4 0.0775,0.0462 0.0955,0.15876 0.186454,0.18599 0.129258,0.0387 0.262632,-0.001 0.394013,-0.002 0.127532,-5.7e-4 0.255274,0.006 0.38261,-9.5e-4 0.107874,-0.006 0.213883,-0.0238 0.325336,-0.008 0.04991,0.007 0.03508,0.0611 0.02396,0.0958 -0.01037,0.0324 -0.03878,0.0871 0.008,0.10649 0.100288,0.0416 0.20889,0.005 0.312111,-0.002 0.08508,-0.006 0.170483,-0.003 0.255723,-0.003 0.189388,-3.1e-4 0.379181,0.0117 0.56817,-4.7e-4 0.06485,-0.004 0.131346,-0.0151 0.195123,0.009 0.13034,0.0501 0.234788,0.16428 0.374199,0.18489 0.06603,0.01 0.131782,-0.006 0.198183,-0.006 0.183198,-4.4e-4 0.366944,0.013 0.549609,-6.7e-4 0.06325,-0.005 0.134174,-0.0281 0.19143,0.0135 0.07025,0.0511 0.09485,0.15775 0.183176,0.18174 0.06466,0.0176 0.129736,-0.006 0.195344,-0.006 5.26232,5e-5 10.525986,-0.11892 15.786959,8e-5 0.06499,0.001 0.136809,0.0311 0.196563,-0.008 0.07671,-0.0506 0.101765,-0.16234 0.195313,-0.18855 0.111522,-0.0312 0.223021,0.0525 0.333332,0.0173 0.09806,-0.0314 0.111559,-0.18247 0.209629,-0.19678 0.06586,-0.01 0.133144,-5.2e-4 0.199495,4.6e-4 0.05882,8.7e-4 0.120916,0.0186 0.176798,-4.6e-4 0.146002,-0.0498 0.277219,-0.13208 0.411285,-0.20663 0.122946,-0.0684 0.239953,-0.16022 0.384717,-0.17649 0.185817,-0.0209 0.371585,0.0356 0.557659,3.2e-4 0.256611,-0.0486 0.499398,-0.15483 0.722653,-0.28876 0.02367,-0.0142 0.102017,-0.0729 0.04313,-0.0794 -0.07793,-0.009 -0.283242,0.0736 -0.232714,0.0147 0.02201,-0.0257 0.07181,-0.0373 0.107986,-0.0502 0.155237,-0.0551 0.305388,-0.1336 0.468137,-0.15846 0.06305,-0.01 0.125232,0.0164 0.189202,-4.5e-4 0.195342,-0.0516 0.372989,-0.16824 0.575463,-0.18771 0.11587,-0.0111 0.23504,0.0462 0.34728,0.004 0.0891,-0.0333 0.093,-0.18901 0.18814,-0.18815 0.13635,0.001 0.54539,0.0195 0.40901,0.0135 -0.055,-0.002 -0.0554,-0.0599 -0.0178,-0.0929 0.0558,-0.0488 0.11814,-0.0959 0.18931,-0.11522 0.0647,-0.0176 0.12998,0.005 0.19559,0.007 0.13384,0.004 0.27322,0.0342 0.40263,-0.016 0.12969,-0.0503 0.2389,-0.13967 0.3697,-0.18932 0.24083,-0.0914 0.49033,-0.15661 0.73084,-0.24975 0.16351,-0.0633 0.33408,-0.12581 0.513,-0.11684 0.14779,0.007 0.29762,0.0341 0.44457,-7.6e-4 0.0941,-0.0223 0.19727,-0.0368 0.27329,-0.0999 0.0574,-0.0477 0.0837,-0.12022 0.13558,-0.17362 0.0351,-0.0361 0.12153,-0.0447 0.11719,-0.0948 -0.006,-0.0675 0.0108,-0.14941 0.0781,-0.18095 0.0811,-0.0379 0.17361,-0.0215 0.25922,-0.0125 0.0709,0.007 0.14647,0.0364 0.21439,0.0103 0.0987,-0.0378 0.11878,-0.17281 0.22235,-0.20183 0.11152,-0.0312 0.22505,0.0584 0.33333,0.0173 0.1043,-0.0396 0.16575,-0.13953 0.23008,-0.22454 0.0508,-0.0672 0.10457,-0.14798 0.18932,-0.16845 0.0554,-0.0134 0.11691,0.0332 0.16652,0.008 0.13226,-0.067 0.28179,-0.10706 0.3961,-0.20322 0.0656,-0.0552 0.0961,-0.15982 0.18454,-0.17907 0.0634,-0.0138 0.12582,0.0236 0.19051,-5.9e-4 0.12948,-0.0483 0.23261,-0.15823 0.36904,-0.18452 0.0612,-0.0118 0.12642,0.0334 0.18413,-9.9e-4 0.0775,-0.0462 0.0952,-0.15968 0.18645,-0.18597 0.12267,-0.0354 0.26461,0.074 0.37071,0.002 0.0516,-0.0351 0.0915,-0.0849 0.1343,-0.12993 0.0758,-0.0798 0.14015,-0.17302 0.22932,-0.23785 0.052,-0.0378 0.11884,-0.0139 0.17703,-0.01 0.0513,0.004 0.0763,-0.06 0.10616,-0.0951 0.0422,-0.0496 0.0948,-0.10183 0.1659,-0.10268 0.0945,-0.001 0.18725,0.0289 0.28172,0.023 0.046,-0.003 0.0684,-0.0511 0.0861,-0.0869 0.0488,-0.0988 0.0513,-0.22513 0.13647,-0.30155 0.036,-0.0323 0.0873,-0.0115 0.12707,-1.5e-4 0.054,0.0154 0.10513,-0.0154 0.15144,-0.0387 0.10093,-0.0508 0.18968,-0.13763 0.30298,-0.15322 0.0594,-0.008 0.12251,0.0332 0.17837,-5e-5 0.0775,-0.0462 0.0952,-0.15972 0.18646,-0.18598 0.12856,-0.037 0.25963,0.0327 0.38954,-0.003 0.099,-0.0272 0.20115,-0.0501 0.29137,-0.10103 0.0568,-0.032 0.0675,-0.10132 0.10834,-0.14776 0.0773,-0.088 0.17916,-0.14999 0.28116,-0.2048 0.1159,-0.0623 0.24638,-0.0899 0.36864,-0.13984 0.038,-0.0155 0.0774,0.007 0.0506,0.053 -0.0173,0.0297 -0.0944,0.0925 -0.0624,0.0814 0.0415,-0.0144 0.0775,-0.0425 0.11405,-0.0667 0.11838,-0.0786 0.2462,-0.14503 0.35435,-0.23711 0.0678,-0.0578 0.10247,-0.1607 0.19533,-0.18331 0.11005,-0.0268 0.21916,0.0532 0.32784,0.0189 0.10367,-0.0327 0.12249,-0.17313 0.22573,-0.20326 0.0568,-0.0166 0.13124,0.0468 0.17204,0.006 0.0678,-0.067 0.1129,-0.16967 0.20963,-0.19678 0.11152,-0.0312 0.22505,0.0584 0.33333,0.0173 0.1043,-0.0396 0.16576,-0.13953 0.23008,-0.22454 0.0498,-0.0658 0.10077,-0.14829 0.18389,-0.16638 0.0634,-0.0138 0.12576,0.0234 0.19051,-5.9e-4 0.13311,-0.0493 0.23881,-0.16588 0.38034,-0.18727 0.065,-0.01 0.12984,0.004 0.19506,0.006 0.11765,0.005 0.24225,0.044 0.35454,-0.004 0.0832,-0.0352 0.10346,-0.14695 0.18039,-0.18532 0.13273,-0.0662 0.25082,-0.17129 0.40232,-0.19258 0.182,-0.0256 0.37206,0.069 0.54632,0.002 0.09,-0.0345 0.11223,-0.14256 0.19123,-0.19307 0.15217,-0.0973 0.32459,-0.15464 0.48076,-0.2455 0.10223,-0.0595 0.20839,-0.12946 0.33021,-0.13276 0.11135,-0.003 0.22187,0.0262 0.33389,0.004 0.22574,-0.0454 0.44128,-0.13077 0.64585,-0.23512 0.36049,-0.18389 0.72661,-0.35678 1.08483,-0.54504 0.12899,-0.0678 0.25774,-0.13719 0.39683,-0.18366 0.3479,-0.11623 0.71585,-0.18386 1.04403,-0.34767 0.20467,-0.10216 0.35113,-0.30492 0.56809,-0.37753 0.37594,-0.12581 0.77341,-0.19963 1.12817,-0.37649 0.25003,-0.12465 0.48394,-0.28853 0.74965,-0.37486 0.0622,-0.0202 0.13095,0.0384 0.18815,0 0.14759,-0.0991 0.21032,-0.28697 0.36892,-0.37249 0.091,-0.0491 0.19641,-0.015 0.29381,-0.0109 0.0376,0.002 0.077,0.0133 0.11347,-0.005 0.13014,-0.0637 0.27543,-0.10548 0.38578,-0.20144 0.0653,-0.0567 0.12198,-0.12232 0.17768,-0.1882 0.0529,-0.0625 0.0954,-0.14907 0.18241,-0.16793 0.11314,-0.0245 0.2218,0.0295 0.33799,0.0135 0.0504,-0.007 0.043,-0.063 0.0299,-0.0993 -0.0149,-0.0413 -0.0181,-0.086 0.008,-0.12692 0.0459,-0.0726 0.10916,-0.14664 0.19354,-0.16695 0.0554,-0.0133 0.12689,0.047 0.16652,0.008 0.0655,-0.0644 0.10604,-0.16922 0.19902,-0.19229 0.0555,-0.0138 0.11134,0.0388 0.16373,0.0137 0.0405,-0.0194 0.0246,-0.0708 0.0135,-0.10365 -0.0111,-0.0329 -0.0287,-0.0883 0.0135,-0.10364 0.0581,-0.021 0.11839,0.0382 0.1746,0.01 0.0853,-0.0434 0.10449,-0.16896 0.19902,-0.19228 0.0554,-0.0137 0.11133,0.0388 0.16373,0.0137 0.0405,-0.0194 0.0247,-0.0708 0.0136,-0.10364 -0.0111,-0.0329 -0.0287,-0.0883 0.0135,-0.10368 0.0602,-0.0219 0.12259,0.0386 0.18194,0.006 0.15326,-0.0849 0.21111,-0.2652 0.35434,-0.36465 0.0541,-0.0376 0.11708,0.007 0.17514,-2.2e-4 0.0462,-0.006 0.0728,-0.0507 0.10336,-0.0812 0.10051,-0.10055 0.18175,-0.2246 0.30053,-0.30271 0.13039,-0.0857 0.28819,-0.11935 0.41386,-0.21384 0.0531,-0.0399 0.14303,-0.0701 0.14491,-0.13822 0.001,-0.0429 0.0163,-0.076 0.0619,-0.0959 0.10771,-0.0469 0.21618,-0.0973 0.33139,-0.11949 0.0613,-0.0118 0.12593,0.0325 0.18419,-8.8e-4 0.0862,-0.0495 0.13569,-0.13869 0.20431,-0.20781 0.09,-0.0907 0.18262,-0.17896 0.26587,-0.27608 0.0886,-0.10338 0.22238,-0.14397 0.34173,-0.19969 0.059,-0.0275 0.117,-0.0585 0.16415,-0.10546 0.10984,-0.10928 0.20139,-0.23955 0.32682,-0.33053 0.039,-0.0283 0.0898,-0.009 0.13168,5e-4 0.0565,0.0135 0.10538,-0.0275 0.14332,-0.0634 0.10378,-0.0981 0.16152,-0.2412 0.28889,-0.31509 0.0587,-0.0341 0.12418,0.0334 0.18196,0.006 0.0405,-0.0194 0.0246,-0.0708 0.0135,-0.10365 -0.0111,-0.0329 -0.0287,-0.0884 0.0135,-0.10362 0.0581,-0.021 0.1184,0.0382 0.1746,0.01 0.0853,-0.0434 0.10449,-0.16896 0.19902,-0.19228 0.0555,-0.0137 0.11133,0.0388 0.16373,0.0137 0.0405,-0.0194 0.0246,-0.0708 0.0135,-0.10364 -0.011,-0.0326 -0.0292,-0.09 0.0139,-0.10326 0.056,-0.0173 0.11486,0.0481 0.16539,0.016 0.0378,-0.024 0.0203,-0.0752 0.007,-0.1076 -0.0136,-0.033 -0.022,-0.0939 0.0276,-0.0983 0.0911,-0.008 0.18108,0.0133 0.27162,0.0216 0.0461,0.004 0.0912,-0.0115 0.12509,-0.0452 0.0528,-0.0524 0.0807,-0.14278 0.15847,-0.15943 0.0598,-0.0128 0.12162,0.0339 0.17924,0.002 0.15326,-0.0849 0.21147,-0.26468 0.35435,-0.36464 0.0487,-0.0341 0.10583,-0.003 0.1567,0.007 0.0388,0.008 0.0624,-0.0306 0.0568,-0.0689 -0.006,-0.0411 -0.0434,-0.0878 -0.0176,-0.12488 0.0317,-0.0454 0.0945,-0.0353 0.14147,-0.0245 0.0668,0.0153 0.13328,0.0503 0.20365,0.0374 0.0376,-0.007 0.0541,-0.044 0.0474,-0.0826 -0.007,-0.0398 -0.0431,-0.0887 -0.0132,-0.12306 0.0291,-0.0334 0.0781,-0.0141 0.11132,-2.3e-4 0.0317,0.0132 0.0869,0.0161 0.0926,-0.0285 0.007,-0.0528 -0.051,-0.10885 -0.0189,-0.15482 0.0317,-0.0453 0.0945,-0.0353 0.14148,-0.0245 0.0668,0.0153 0.13327,0.0503 0.20365,0.0374 0.0377,-0.007 0.0541,-0.0441 0.0473,-0.0826 -0.007,-0.0398 -0.043,-0.0886 -0.0131,-0.12302 0.029,-0.0335 0.0781,-0.0141 0.11129,-2.2e-4 0.0318,0.0133 0.0869,0.0161 0.0927,-0.0285 0.007,-0.0528 -0.0489,-0.10744 -0.0189,-0.1548 0.0241,-0.038 0.0755,-0.0239 0.10944,-0.0116 0.0405,0.0147 0.085,0.01 0.11977,-0.0199 0.0656,-0.0561 0.10492,-0.13717 0.18169,-0.18304 0.1183,-0.0707 0.26213,-0.0962 0.3683,-0.18577 0.0643,-0.0542 0.0937,-0.15603 0.17921,-0.17722 0.0555,-0.0137 0.11133,0.0388 0.16373,0.0137 0.0405,-0.0194 0.0247,-0.0708 0.0136,-0.10367 -0.0111,-0.0329 -0.0287,-0.0884 0.0136,-0.10362 0.058,-0.021 0.11838,0.0382 0.17458,0.01 0.0812,-0.0414 0.12554,-0.12593 0.18815,-0.18814"
       id="path4531"
       inkscape:connector-curvature="0"
       inkscape:path-effect="#path-effect4533"
       inkscape:original-d="m 50.423452,198.59901 c 0.60207,0.80276 0.564441,0.43901 0.564441,0.94074 0,0.0627 -0.04435,0.1438 0,0.18814 0.04435,0.0444 0.143801,-0.0443 0.188148,0 0.08869,0.0887 -0.08869,0.2876 0,0.3763 0.04435,0.0443 0.143798,-0.0443 0.188145,0 0.04435,0.0443 -0.02805,0.13205 0,0.18814 0.03967,0.0793 0.148484,0.10882 0.188148,0.18815 0.03924,0.0785 -0.0438,0.33249 0,0.3763 0.04435,0.0443 0.143801,-0.0443 0.188148,0 0.08869,0.0887 -0.08869,0.2876 0,0.37629 0.04435,0.0444 0.143801,-0.0444 0.188148,0 0.04435,0.0444 -0.02805,0.13205 0,0.18815 0.07933,0.15866 0.296963,0.21763 0.376293,0.37629 0.02805,0.0561 -0.04435,0.1438 0,0.18815 0.04435,0.0444 0.143801,-0.0444 0.188148,0 0.04435,0.0444 -0.02805,0.13205 0,0.18815 0.07933,0.15866 0.296963,0.21763 0.376293,0.37629 0.02805,0.0561 -0.04435,0.1438 0,0.18815 0.04435,0.0444 0.143801,-0.0443 0.188148,0 0.04435,0.0444 -0.04435,0.1438 0,0.18815 0.04435,0.0443 0.143801,-0.0444 0.188147,0 0.04435,0.0443 -0.04435,0.1438 0,0.18814 0.04435,0.0444 0.143802,-0.0443 0.188148,0 0.04435,0.0444 -0.02805,0.13206 0,0.18815 0.03966,0.0793 0.148482,0.10882 0.188146,0.18815 0.02805,0.0561 -0.02805,0.13205 0,0.18814 0.391511,0.78303 -0.01299,-0.20113 0.376295,0.18815 0.04435,0.0444 -0.02805,0.13205 0,0.18815 0.03966,0.0793 0.148482,0.10882 0.188148,0.18815 0.02805,0.0561 -0.04435,0.1438 0,0.18814 0.04435,0.0444 0.143799,-0.0443 0.188145,0 0.04435,0.0444 -0.02805,0.13205 0,0.18815 0.07933,0.15866 0.296966,0.21763 0.376296,0.37629 0.02805,0.0561 -0.02805,0.13206 0,0.18815 0.03966,0.0793 0.148482,0.10882 0.188148,0.18815 0.02805,0.0561 -0.02805,0.13205 0,0.18815 0.03966,0.0793 0.125431,0.12543 0.188145,0.18814 0.125434,0.12543 0.250865,0.25087 0.376296,0.3763 0.06272,0.0627 0.148481,0.10881 0.188148,0.18814 0.02804,0.0561 -0.04435,0.14381 0,0.18815 0.04435,0.0443 0.143801,-0.0443 0.188145,0 0.04435,0.0443 -0.02805,0.13206 0,0.18815 0.07933,0.15866 0.296966,0.21764 0.376296,0.37629 0.02805,0.0561 -0.02805,0.13206 0,0.18815 0.03966,0.0793 0.148481,0.10882 0.188147,0.18815 0.02805,0.0561 -0.02805,0.13205 0,0.18815 0.03966,0.0793 0.125431,0.12543 0.188146,0.18814 0.06272,0.0627 0.125433,0.12544 0.188147,0.18815 0.06272,0.0627 0.148485,0.10882 0.188148,0.18815 0.02805,0.0561 -0.04435,0.1438 0,0.18815 0.04435,0.0443 0.143801,-0.0443 0.188148,0 0.04435,0.0443 -0.02805,0.13205 0,0.18814 0.03966,0.0793 0.138949,0.11435 0.188148,0.18815 0.114578,0.17187 0.160597,0.45659 0.376293,0.56444 0.05609,0.0281 0.143801,-0.0443 0.188148,0 0.0438,0.0438 -0.03924,0.29781 0,0.3763 0.391512,0.78302 -0.01299,-0.20114 0.376293,0.18814 0.04435,0.0443 -0.02805,0.13205 0,0.18815 0.03967,0.0793 0.125431,0.12543 0.188148,0.18815 0.188148,0.18814 0.376296,0.37629 0.564441,0.56444 0.06272,0.0627 0.148484,0.10881 0.188148,0.18814 0.02805,0.0561 -0.02805,0.13206 0,0.18815 0.03967,0.0793 0.125431,0.12543 0.188147,0.18815 0.06271,0.0627 0.125431,0.12543 0.188148,0.18815 0.06271,0.0627 0.108815,0.14848 0.188145,0.18814 0.05609,0.0281 0.132054,-0.028 0.188148,0 0.07933,0.0397 0.125431,0.12544 0.188148,0.18815 0.125431,0.12543 0.250862,0.25086 0.376293,0.3763 0.06272,0.0627 0.108818,0.14848 0.188148,0.18814 0.05609,0.0281 0.143801,-0.0443 0.188148,0 0.04435,0.0444 -0.04435,0.1438 0,0.18815 0.04435,0.0444 0.132051,-0.0281 0.188148,0 0.07933,0.0397 0.125431,0.12543 0.188145,0.18815 0.252738,0.25273 0.12356,0.12356 0.376296,0.37629 0.06271,0.0627 0.108818,0.14849 0.188148,0.18815 0.05609,0.0281 0.143798,-0.0443 0.188145,0 0.04435,0.0444 0,0.12543 0,0.18815 0.06272,0.0627 0.11435,0.13895 0.188148,0.18814 0.116684,0.0778 0.259611,0.11036 0.376295,0.18815 0.0738,0.0492 0.125431,0.12543 0.188146,0.18815 0.06272,0.0627 0.125433,0.12543 0.188147,0.18815 0.06272,0.0627 0.108818,0.14848 0.188148,0.18814 0.05609,0.0281 0.132054,-0.0281 0.188148,0 0.07933,0.0397 0.125431,0.12543 0.188145,0.18815 0.06272,0.0627 0.125434,0.12543 0.188148,0.18815 0.06272,0.0627 0.108818,0.14848 0.188148,0.18814 0.05609,0.0281 0.132054,-0.028 0.188148,0 0.07933,0.0397 0.108818,0.14849 0.188145,0.18815 0.0561,0.0281 0.132054,-0.0281 0.188148,0 0.05401,0.027 0.33428,0.36229 0.376296,0.3763 0.118993,0.0397 0.257299,-0.0397 0.376293,0 0.08414,0.028 0.108818,0.14848 0.188148,0.18814 0.05609,0.0281 0.132053,-0.028 0.188147,0 0.07933,0.0397 0.104005,0.1601 0.188148,0.18815 0.118994,0.0397 0.254606,-0.0304 0.376293,0 0.545672,0.13642 0.220181,0.14679 0.564441,0.37629 0.821743,0.54783 -0.06202,-0.0834 0.752589,0.18815 0.08414,0.0281 0.104005,0.1601 0.188148,0.18815 0.118994,0.0397 0.257299,-0.0397 0.376296,0 0.08414,0.0281 0.104005,0.1601 0.188145,0.18815 0.118996,0.0397 0.250864,0 0.376295,0 0.06271,0 0.128649,-0.0198 0.188148,0 0.266079,0.0887 0.486508,0.2876 0.752589,0.37629 0.0595,0.0198 0.125431,0 0.188145,0 0.125434,0 0.257302,-0.0397 0.376296,0 0.08414,0.0281 0.108818,0.14848 0.188148,0.18815 0.112188,0.0561 0.264104,-0.0561 0.376293,0 0.07933,0.0397 0.104005,0.1601 0.188148,0.18815 0.118993,0.0397 0.257299,-0.0397 0.376293,0 0.08414,0.028 0.108818,0.14848 0.188148,0.18814 0.05609,0.0281 0.128651,-0.0198 0.188147,0 0.133041,0.0443 0.243256,0.1438 0.376294,0.18815 0.04051,0.0135 0.348284,-0.014 0.376295,0 0.07933,0.0397 0.108818,0.14848 0.188148,0.18815 0.05609,0.028 0.125431,0 0.188145,0 0.06272,0 0.125434,0 0.188148,0 0.125431,0 0.257299,-0.0397 0.376296,0 0.08414,0.028 0.108818,0.14848 0.188148,0.18814 0.05609,0.0281 0.128648,-0.0198 0.188145,0 0.13304,0.0444 0.243255,0.1438 0.376296,0.18815 0.0595,0.0198 0.132051,-0.0281 0.188147,0 0.07933,0.0397 0.108816,0.14848 0.188146,0.18815 0.05609,0.028 0.125431,0 0.188148,0 0.125431,0 0.257299,-0.0397 0.376295,0 0.08414,0.028 0.108815,0.14848 0.188145,0.18815 0.05609,0.028 0.132054,-0.028 0.188148,0 0.07933,0.0397 0.104005,0.1601 0.188148,0.18814 0.118994,0.0397 0.250862,0 0.376293,0 0.125434,0 0.250865,0 0.376296,0 0.125431,0 0.264104,-0.0561 0.376293,0 0.05609,0.0281 -0.05609,0.1601 0,0.18815 0.112191,0.0561 0.250865,0 0.376296,0 0.06271,0 0.125431,0 0.188148,0 0.188145,0 0.376293,0 0.56444,0 0.06271,0 0.128649,-0.0198 0.188148,0 0.133041,0.0444 0.243253,0.1438 0.376293,0.18815 0.0595,0.0198 0.125431,0 0.188148,0 0.188148,0 0.376293,0 0.564441,0 0.06272,0 0.132054,-0.0281 0.188148,0 0.07933,0.0397 0.108818,0.14848 0.188148,0.18814 0.05609,0.028 0.125431,0 0.188145,0 0.06272,0 0.125434,0 0.188148,0 0.188148,0 0.376296,0 0.564441,0 0.689874,0 1.379746,0 2.069621,0 2.006904,0 4.013806,0 6.02071,0 1.630608,0 3.261217,0 4.891828,0 0.564441,0 1.128882,0 1.693323,0 0.125434,0 0.250865,0 0.376296,0 0.06272,0 0.132053,0.028 0.188147,0 0.07933,-0.0397 0.108818,-0.14848 0.188146,-0.18814 0.112191,-0.0561 0.264107,0.0561 0.376295,0 0.07933,-0.0397 0.108818,-0.14848 0.188148,-0.18815 0.02801,-0.014 0.335786,0.0135 0.376293,0 0.133041,-0.0444 0.250865,-0.12543 0.376296,-0.18815 0.125431,-0.0627 0.238781,-0.16064 0.376293,-0.18814 0.184494,-0.0369 0.378854,0.0309 0.564444,0 0.195625,-0.0326 0.387053,-0.0995 0.564441,-0.18815 0.861075,-0.43054 -0.798389,0.078 0.56444,-0.3763 0.0595,-0.0198 0.127305,0.0152 0.188148,0 0.192403,-0.0481 0.369967,-0.14925 0.564438,-0.18814 0.123,-0.0246 0.2573,0.0397 0.3763,0 0.0841,-0.028 0.104,-0.1601 0.18814,-0.18815 0.85651,0 0.0108,0.0887 0.56445,-0.18815 0.0561,-0.028 0.12543,0 0.18814,0 0.12544,0 0.25461,0.0304 0.3763,0 0.13605,-0.034 0.24608,-0.13606 0.37629,-0.18814 0.18414,-0.0737 0.3763,-0.12544 0.56445,-0.18815 0.18814,-0.0627 0.36881,-0.15554 0.56444,-0.18815 0.18558,-0.0309 0.37994,0.0369 0.56444,0 0.4872,-0.0974 0.25716,-0.17144 0.56444,-0.37629 -0.0214,-0.35644 0.43901,-0.12544 0.56444,-0.18815 0.0793,-0.0397 0.10882,-0.14848 0.18815,-0.18815 0.11219,-0.0561 0.2641,0.0561 0.37629,0 0.15866,-0.0793 0.21764,-0.29696 0.3763,-0.37629 0.0561,-0.0281 0.12543,0 0.18814,0 0.12543,-0.0627 0.25962,-0.11036 0.3763,-0.18815 0.0738,-0.0492 0.10882,-0.14848 0.18815,-0.18815 0.0561,-0.028 0.12865,0.0199 0.18814,0 0.13304,-0.0443 0.24326,-0.1438 0.3763,-0.18814 0.0595,-0.0198 0.13205,0.028 0.18815,0 0.0793,-0.0397 0.104,-0.1601 0.18814,-0.18815 0.119,-0.0397 0.2573,0.0397 0.3763,0 0.042,-0.014 0.32228,-0.34929 0.37629,-0.3763 0.0561,-0.028 0.12543,0 0.18815,0 0.0627,-0.0627 0.10882,-0.14848 0.18815,-0.18814 0.0785,-0.0392 0.33249,0.0438 0.37629,0 0.0992,-0.0992 0.089,-0.27714 0.18815,-0.3763 0.0443,-0.0443 0.12865,0.0198 0.18814,0 0.13304,-0.0443 0.24326,-0.1438 0.3763,-0.18814 0.0595,-0.0198 0.13205,0.028 0.18814,0 0.0793,-0.0397 0.10401,-0.1601 0.18815,-0.18815 0.119,-0.0397 0.25461,0.0304 0.3763,0 0.54567,-0.13642 0.22018,-0.14679 0.56444,-0.3763 0.11668,-0.0778 0.24325,-0.1438 0.37629,-0.18814 0.56009,-0.1867 -0.38604,0.4455 0.56444,-0.18815 0.0738,-0.0492 0.10882,-0.14848 0.18815,-0.18815 0.11219,-0.0561 0.26411,0.0561 0.3763,0 0.0793,-0.0397 0.10881,-0.14848 0.18814,-0.18814 0.0561,-0.0281 0.12544,0 0.18815,0 0.0627,-0.0627 0.10882,-0.14849 0.18815,-0.18815 0.11219,-0.0561 0.2641,0.0561 0.37629,0 0.15866,-0.0793 0.21764,-0.29697 0.3763,-0.3763 0.0561,-0.028 0.12865,0.0199 0.18814,0 0.13304,-0.0443 0.24326,-0.1438 0.3763,-0.18814 0.0595,-0.0199 0.12543,0 0.18815,0 0.12543,0 0.25729,0.0397 0.37629,0 0.0841,-0.0281 0.12543,-0.12544 0.18815,-0.18815 0.12543,-0.0627 0.23878,-0.16065 0.37629,-0.18815 0.1845,-0.0369 0.38191,0.0456 0.56444,0 0.0861,-0.0215 0.11435,-0.13895 0.18815,-0.18815 0.11668,-0.0778 0.25086,-0.12543 0.37629,-0.18814 0.12544,-0.0627 0.24025,-0.15414 0.3763,-0.18815 0.12169,-0.0304 0.2533,0.0246 0.37629,0 0.38749,-0.0775 0.60626,-0.20905 0.94074,-0.3763 0.25086,-0.12543 0.50173,-0.25086 0.75259,-0.37629 0.12543,-0.0627 0.24609,-0.13606 0.37629,-0.18815 0.0116,-0.005 1.12421,-0.37395 1.12889,-0.37629 0.20225,-0.10113 0.36219,-0.27517 0.56444,-0.37629 0.005,-0.002 1.11726,-0.37165 1.12888,-0.3763 0.009,-0.004 0.74704,-0.37444 0.75259,-0.37629 0.0595,-0.0199 0.13596,0.0348 0.18815,0 0.14759,-0.0984 0.21763,-0.29697 0.37629,-0.3763 0.11219,-0.0561 0.25087,0 0.3763,0 0.12543,-0.0627 0.25961,-0.11036 0.37629,-0.18814 0.0738,-0.0492 0.12543,-0.12544 0.18815,-0.18815 0.0627,-0.0627 0.104,-0.1601 0.18814,-0.18815 0.119,-0.0397 0.26411,0.0561 0.3763,0 0.0561,-0.0281 -0.028,-0.13205 0,-0.18815 0.0397,-0.0793 0.10882,-0.14848 0.18815,-0.18814 0.0561,-0.028 0.12543,0 0.18814,0 0.0627,-0.0627 0.10882,-0.14849 0.18815,-0.18815 0.0561,-0.0281 0.1438,0.0443 0.18815,0 0.0443,-0.0444 -0.0443,-0.1438 0,-0.18815 0.0443,-0.0444 0.13205,0.0281 0.18814,0 0.0793,-0.0397 0.10882,-0.14848 0.18815,-0.18815 0.0561,-0.028 0.1438,0.0444 0.18815,0 0.0444,-0.0443 -0.0443,-0.1438 0,-0.18814 0.0444,-0.0444 0.13205,0.028 0.18815,0 0.15866,-0.0793 0.21763,-0.29697 0.37629,-0.3763 0.0561,-0.028 0.13205,0.028 0.18815,0 0.0173,-0.009 0.35086,-0.35934 0.37629,-0.37629 0.11669,-0.0778 0.25961,-0.11036 0.3763,-0.18815 0.43054,-0.28702 -0.11765,-0.14893 0.56444,-0.37629 0.0595,-0.0199 0.13205,0.028 0.18815,0 0.0793,-0.0397 0.12543,-0.12544 0.18814,-0.18815 0.0627,-0.0627 0.12544,-0.12543 0.18815,-0.18815 0.0627,-0.0627 0.11435,-0.13895 0.18815,-0.18815 0.11668,-0.0778 0.25961,-0.11035 0.37629,-0.18814 0.0254,-0.017 0.35895,-0.36763 0.3763,-0.3763 0.0561,-0.028 0.13205,0.0281 0.18814,0 0.15866,-0.0793 0.21764,-0.29696 0.3763,-0.37629 0.0561,-0.0281 0.1438,0.0443 0.18815,0 0.0443,-0.0444 -0.0443,-0.1438 0,-0.18815 0.0443,-0.0443 0.13205,0.0281 0.18814,0 0.0793,-0.0397 0.10882,-0.14848 0.18815,-0.18815 0.0561,-0.028 0.1438,0.0444 0.18815,0 0.0443,-0.0443 -0.0444,-0.1438 0,-0.18814 0.0443,-0.0443 0.1438,0.0443 0.18814,0 0.0444,-0.0443 -0.0443,-0.1438 0,-0.18815 0.0438,-0.0438 0.29781,0.0392 0.3763,0 0.0793,-0.0397 0.10881,-0.14848 0.18814,-0.18815 0.0561,-0.028 0.13206,0.0281 0.18815,0 0.15866,-0.0793 0.21764,-0.29696 0.3763,-0.37629 0.0561,-0.0281 0.1438,0.0444 0.18814,0 0.0444,-0.0443 -0.0443,-0.1438 0,-0.18815 0.0887,-0.0887 0.28761,0.0887 0.3763,0 0.0444,-0.0443 -0.0443,-0.1438 0,-0.18815 0.0444,-0.0443 0.1438,0.0443 0.18815,0 0.0443,-0.0443 -0.0444,-0.1438 0,-0.18814 0.0887,-0.0887 0.2876,0.0887 0.37629,0 0.0443,-0.0444 -0.0444,-0.1438 0,-0.18815 0.0443,-0.0444 0.1438,0.0444 0.18815,0 0.0443,-0.0444 -0.0443,-0.1438 0,-0.18815 0.0443,-0.0443 0.13205,0.0281 0.18815,0 0.0793,-0.0397 0.11434,-0.13895 0.18814,-0.18814 0.11668,-0.0778 0.25961,-0.11036 0.3763,-0.18815 0.0738,-0.0492 0.10881,-0.14848 0.18814,-0.18815 0.0561,-0.0281 0.1438,0.0444 0.18815,0 0.0444,-0.0444 -0.0444,-0.1438 0,-0.18815 0.0444,-0.0443 0.13205,0.0281 0.18815,0 0.0793,-0.0397 0.12543,-0.12543 0.18815,-0.18814" />
    <path
       style="fill:none;stroke:#000000;stroke-width:0.26499999;stroke-linecap:butt;stroke-linejoin:miter;stroke-opacity:1;stroke-miterlimit:4;stroke-dasharray:0.79499996,0.26499999;stroke-dashoffset:0"
       d="m 87.300304,197.65827 v 64.72264"
       id="path4535"
       inkscape:connector-curvature="0" />
    <path
       style="fill:none;stroke:#000000;stroke-width:0.26458332px;stroke-linecap:butt;stroke-linejoin:miter;stroke-opacity:1;marker-end:url(#Arrow1Mend)"
       d="M 92.568426,205.93675 H 108.93723"
       id="path4537"
       inkscape:connector-curvature="0" />
    <text
       xml:space="preserve"
       style="font-style:normal;font-weight:normal;font-size:2.82222223px;line-height:1.25;font-family:sans-serif;letter-spacing:0px;word-spacing:0px;fill:#000000;fill-opacity:1;stroke:none;stroke-width:0.26458332"
       x="92.56842"
       y="202.92639"
       id="text4823"><tspan
         sodipodi:role="line"
         id="tspan4821"
         x="92.56842"
         y="202.92639"
         style="stroke-width:0.26458332">over fitting</tspan><tspan
         sodipodi:role="line"
         x="92.56842"
         y="206.45416"
         style="stroke-width:0.26458332"
         id="tspan4825" /></text>
    <text
       xml:space="preserve"
       style="font-style:normal;font-weight:normal;font-size:2.82222223px;line-height:1.25;font-family:sans-serif;letter-spacing:0px;word-spacing:0px;fill:#000000;fill-opacity:1;stroke:none;stroke-width:0.26458332"
       x="125.30605"
       y="198.41086"
       id="text4829"><tspan
         sodipodi:role="line"
         id="tspan4827"
         x="125.30605"
         y="198.41086"
         style="stroke-width:0.26458332">$ err_{D}(h) $</tspan><tspan
         sodipodi:role="line"
         x="125.30605"
         y="201.93863"
         style="stroke-width:0.26458332"
         id="tspan4831" /></text>
    <text
       xml:space="preserve"
       style="font-style:normal;font-weight:normal;font-size:2.82222223px;line-height:1.25;font-family:sans-serif;letter-spacing:0px;word-spacing:0px;fill:#000000;fill-opacity:1;stroke:none;stroke-width:0.26458332"
       x="133.58452"
       y="250.52763"
       id="text4835"><tspan
         sodipodi:role="line"
         id="tspan4833"
         x="133.58452"
         y="250.52763"
         style="stroke-width:0.26458332">$ \widehat{err_{D}(h)} $</tspan><tspan
         sodipodi:role="line"
         x="133.58452"
         y="254.0554"
         style="stroke-width:0.26458332"
         id="tspan4837" /></text>
    <text
       xml:space="preserve"
       style="font-style:normal;font-weight:normal;font-size:2.82222223px;line-height:1.25;font-family:sans-serif;letter-spacing:0px;word-spacing:0px;fill:#000000;fill-opacity:1;stroke:none;stroke-width:0.26458332"
       x="57.7612"
       y="267.64905"
       id="text4841"><tspan
         sodipodi:role="line"
         id="tspan4839"
         x="57.7612"
         y="267.64905"
         style="stroke-width:0.26458332">The complexity of hyp. space, $ \left\lvert \mathcal{H} \right\rvert  $</tspan><tspan
         sodipodi:role="line"
         x="57.7612"
         y="271.17682"
         style="stroke-width:0.26458332"
         id="tspan4843" /></text>
    <text
       xml:space="preserve"
       style="font-style:normal;font-weight:normal;font-size:2.82222223px;line-height:1.25;font-family:sans-serif;letter-spacing:0px;word-spacing:0px;fill:#000000;fill-opacity:1;stroke:none;stroke-width:0.26458332"
       x="33.490204"
       y="197.84642"
       id="text4847"><tspan
         sodipodi:role="line"
         id="tspan4845"
         x="33.490204"
         y="197.84642"
         style="stroke-width:0.26458332">error</tspan><tspan
         sodipodi:role="line"
         x="33.490204"
         y="201.37419"
         style="stroke-width:0.26458332"
         id="tspan4849" /></text>
  </g>
</svg>
